<svg width="900" height="290" xmlns="http://www.w3.org/2000/svg" font-family="'Segoe UI', Arial, sans-serif">
  <defs>
    <marker id="arr" markerWidth="10" markerHeight="7" refX="9" refY="3.5" orient="auto">
      <polygon points="0 0, 10 3.5, 0 7" fill="#4a5568"/>
    </marker>
    <marker id="arr-out" markerWidth="8" markerHeight="6" refX="7" refY="3" orient="auto">
      <polygon points="0 0, 8 3, 0 6" fill="#276749"/>
    </marker>
    <marker id="arr-sw" markerWidth="8" markerHeight="6" refX="7" refY="3" orient="auto">
      <polygon points="0 0, 8 3, 0 6" fill="#2c7a7b"/>
    </marker>
    <filter id="sh" x="-8%" y="-8%" width="116%" height="116%">
      <feDropShadow dx="1" dy="2" stdDeviation="2" flood-color="#00000020"/>
    </filter>
  </defs>

  <!-- Background -->
  <rect width="900" height="290" fill="#f7fafc" rx="10"/>

  <!-- ── Step boxes ── -->
  <!-- 1. Input YAML -->
  <rect x="14" y="108" width="88" height="52" rx="7" fill="#2d3748" filter="url(#sh)"/>
  <text x="58" y="129" text-anchor="middle" font-size="10" font-weight="bold" fill="#e2e8f0">Input</text>
  <text x="58" y="145" text-anchor="middle" font-size="10" fill="#a0aec0">YAML</text>

  <line x1="102" y1="134" x2="118" y2="134" stroke="#4a5568" stroke-width="1.8" marker-end="url(#arr)"/>

  <!-- 2. Parse -->
  <rect x="119" y="108" width="88" height="52" rx="7" fill="#2b6cb0" filter="url(#sh)"/>
  <text x="163" y="129" text-anchor="middle" font-size="10" font-weight="bold" fill="white">Parse</text>
  <text x="163" y="145" text-anchor="middle" font-size="10" fill="#bee3f8">input YAML</text>

  <line x1="207" y1="134" x2="223" y2="134" stroke="#4a5568" stroke-width="1.8" marker-end="url(#arr)"/>

  <!-- 3. Replicate -->
  <rect x="224" y="108" width="88" height="52" rx="7" fill="#2b6cb0" filter="url(#sh)"/>
  <text x="268" y="129" text-anchor="middle" font-size="10" font-weight="bold" fill="white">Replicate</text>
  <text x="268" y="145" text-anchor="middle" font-size="10" fill="#bee3f8">length &gt; 1</text>

  <line x1="312" y1="134" x2="328" y2="134" stroke="#4a5568" stroke-width="1.8" marker-end="url(#arr)"/>

  <!-- 4. Address alloc -->
  <rect x="329" y="108" width="88" height="52" rx="7" fill="#2b6cb0" filter="url(#sh)"/>
  <text x="373" y="122" text-anchor="middle" font-size="10" font-weight="bold" fill="white">Smart</text>
  <text x="373" y="136" text-anchor="middle" font-size="10" fill="#bee3f8">address &amp;</text>
  <text x="373" y="150" text-anchor="middle" font-size="10" fill="#bee3f8">mask alloc</text>

  <line x1="417" y1="134" x2="433" y2="134" stroke="#4a5568" stroke-width="1.8" marker-end="url(#arr)"/>

  <!-- 5. Back-annotated YAML -->
  <rect x="434" y="108" width="88" height="52" rx="7" fill="#744210" filter="url(#sh)"/>
  <text x="478" y="126" text-anchor="middle" font-size="10" font-weight="bold" fill="#fefcbf">Back-</text>
  <text x="478" y="140" text-anchor="middle" font-size="10" fill="#fefcbf">annotated</text>
  <text x="478" y="154" text-anchor="middle" font-size="10" fill="#fefcbf">YAML</text>

  <!-- Feedback loop arrow -->
  <path d="M 478 108 L 478 74 L 58 74 L 58 108" stroke="#d69e2e" stroke-width="1.4" stroke-dasharray="5,3" fill="none" marker-end="url(#arr)"/>
  <text x="268" y="67" text-anchor="middle" font-size="8" fill="#b7791f" font-style="italic">feed back for address lock-in</text>

  <line x1="522" y1="134" x2="538" y2="134" stroke="#4a5568" stroke-width="1.8" marker-end="url(#arr)"/>

  <!-- 6. Jinja2 -->
  <rect x="539" y="108" width="88" height="52" rx="7" fill="#c53030" filter="url(#sh)"/>
  <text x="583" y="129" text-anchor="middle" font-size="11" font-weight="bold" fill="white">Jinja2</text>
  <text x="583" y="145" text-anchor="middle" font-size="10" fill="#fed7d7">templates</text>

  <!-- Fan-out horizontal stub -->
  <line x1="627" y1="134" x2="648" y2="134" stroke="#4a5568" stroke-width="1.8" marker-end="url(#arr)"/>

  <!-- ── Output files (5 rows, vhd/sv grouped) ── -->
  <!-- Row 1: pkg -->
  <rect x="650" y="30"  width="232" height="22" rx="5" fill="#276749" filter="url(#sh)"/>
  <text x="766" y="45" text-anchor="middle" font-size="10" fill="white">*_pkg.vhd / *_pkg.sv</text>

  <!-- Row 2: address decoder -->
  <rect x="650" y="62"  width="232" height="22" rx="5" fill="#276749" filter="url(#sh)"/>
  <text x="766" y="77" text-anchor="middle" font-size="10" fill="white">*_address_decoder.vhd / *.sv</text>

  <!-- Row 3: instantiation -->
  <rect x="650" y="94"  width="232" height="22" rx="5" fill="#276749" filter="url(#sh)"/>
  <text x="766" y="109" text-anchor="middle" font-size="10" fill="white">*_instantiation.vhd / *.sv</text>

  <!-- Row 4: uHAL XML -->
  <rect x="650" y="126" width="232" height="22" rx="5" fill="#2c7a7b" filter="url(#sh)"/>
  <text x="766" y="141" text-anchor="middle" font-size="10" fill="white">*_uhal.xml</text>

  <!-- Row 5: HTML address map -->
  <rect x="650" y="158" width="232" height="22" rx="5" fill="#2c7a7b" filter="url(#sh)"/>
  <text x="766" y="173" text-anchor="middle" font-size="10" fill="white">*_address_space.html</text>

  <!-- Fan-out vertical backbone + branch lines -->
  <line x1="648" y1="41"  x2="648" y2="169" stroke="#718096" stroke-width="1.2"/>
  <line x1="648" y1="41"  x2="650" y2="41"  stroke="#276749" stroke-width="1.2" marker-end="url(#arr-out)"/>
  <line x1="648" y1="73"  x2="650" y2="73"  stroke="#276749" stroke-width="1.2" marker-end="url(#arr-out)"/>
  <line x1="648" y1="105" x2="650" y2="105" stroke="#276749" stroke-width="1.2" marker-end="url(#arr-out)"/>
  <line x1="648" y1="137" x2="650" y2="137" stroke="#2c7a7b" stroke-width="1.2" marker-end="url(#arr-sw)"/>
  <line x1="648" y1="169" x2="650" y2="169" stroke="#2c7a7b" stroke-width="1.2" marker-end="url(#arr-sw)"/>

  <!-- Legend -->
  <rect x="650" y="200" width="12" height="12" rx="2" fill="#276749"/>
  <text x="668" y="211" font-size="9" fill="#4a5568">Firmware files</text>
  <rect x="755" y="200" width="12" height="12" rx="2" fill="#2c7a7b"/>
  <text x="773" y="211" font-size="9" fill="#4a5568">Software files</text>

  <!-- Step labels below pipeline -->
  <text x="58"  y="178" text-anchor="middle" font-size="8" fill="#718096">①</text>
  <text x="163" y="178" text-anchor="middle" font-size="8" fill="#718096">②</text>
  <text x="268" y="178" text-anchor="middle" font-size="8" fill="#718096">③</text>
  <text x="373" y="178" text-anchor="middle" font-size="8" fill="#718096">④</text>
  <text x="478" y="178" text-anchor="middle" font-size="8" fill="#718096">⑤</text>
  <text x="583" y="178" text-anchor="middle" font-size="8" fill="#718096">⑥</text>
</svg>
